<svg width="453" height="445" viewBox="0 0 453 445" fill="none" xmlns="http://www.w3.org/2000/svg">
<g clip-path="url(#clip0_40_25)">
<path d="M84.918 160.488C82.6723 161.797 81.1485 162.944 81.0838 163.752C79.1452 194.512 74.1798 151.893 57.2703 184.932C48.9232 201.389 17.7914 201.933 17.7914 182.347C17.7914 174.323 28.5672 170.677 32.7138 175.642C28.8418 179.164 31.3567 185.47 36.4996 185.47C43.9958 185.47 44.0066 174.134 36.4996 174.134C35.0079 174.134 33.5862 169.508 26.4508 170.009C11.7492 171.156 11.1516 189.283 21.2434 196.693C37.2698 208.454 70.3941 189.961 102.705 168.286C96.7708 129.836 87.9445 92.9414 68.4392 89.1126C56.1556 86.7054 43.2204 99.4199 52.3375 111.014C56.8019 116.604 61.1692 114.52 62.1763 115.613C67.2599 121.138 75.5963 113.448 70.518 107.934C67.0338 104.148 60.69 106.571 60.7223 111.806C54.2601 112.118 49.645 101.719 55.5472 96.2857C69.958 83.0219 90.6425 106.297 84.1856 123.583C71.3258 158.399 106.044 133.191 84.7295 155.448C84.1748 156.051 84.3579 157.952 84.918 160.488Z" fill="#F8AF0C"/>
<path d="M148.464 89.1311C145.879 88.8672 143.973 88.9049 143.445 89.5188C123.794 113.262 144.829 75.8673 111.731 92.6584C95.3011 101.065 69.8022 83.2073 81.3104 67.364C86.0278 60.8749 96.8844 64.2568 97.326 70.7137C92.1239 71.2845 90.449 77.8652 94.6064 80.8917C100.67 85.2968 107.342 76.1312 101.273 71.7207C100.067 70.8429 101.639 66.2655 95.5703 62.4797C83.0012 54.768 71.8594 69.0819 75.6721 81.0048C81.7251 99.9392 119.394 104.452 158.27 105.906C176.068 71.3115 190.614 36.2753 177.086 21.7137C168.567 12.5427 150.629 15.2298 151.183 29.9692C151.507 37.1153 156.267 37.9931 156.439 39.474C157.306 46.9326 168.567 45.6078 167.7 38.1655C167.107 33.0549 160.548 31.2886 157.5 35.5429C152.088 31.994 154.468 20.8736 162.439 19.9473C181.89 17.6855 184.943 48.672 169.563 58.8662C138.695 79.4754 181.604 79.4862 151.275 84.9629C150.473 85.1083 149.503 86.7508 148.464 89.1311Z" fill="#F8AF0C"/>
<path d="M241.817 68.754C239.878 67.0199 238.316 65.9267 237.53 66.1152C207.675 73.7783 246.68 55.8833 210.028 50.0134C191.794 47.1592 181.659 17.7183 200.286 11.6707C207.917 9.19354 214.713 18.3107 211.272 23.7929C206.727 21.1972 201.503 25.5377 203.092 30.4274C205.407 37.5574 216.194 34.0624 213.878 26.9216C213.415 25.5053 217.379 22.7212 214.697 16.092C209.064 2.46203 191.637 7.49724 187.712 19.3824C181.481 38.2575 209.301 64.0473 239.9 88.0761C274.634 70.5526 306.994 50.7566 304.608 31.0198C303.106 18.5907 287.015 10.2221 278.802 22.4734C274.86 28.4456 278.199 31.9514 277.467 33.2493C273.783 39.7923 283.67 45.3445 287.349 38.8122C289.869 34.3317 285.604 29.0434 280.639 30.6913C278.345 24.6383 286.81 17.0398 293.8 20.9764C310.866 30.5836 295.125 57.445 276.686 56.648C239.598 55.1778 274.306 80.4075 246.55 67.0091C245.807 66.6752 244.057 67.44 241.817 68.754Z" fill="#F8AF0C"/>
<path d="M329.321 107.137C328.772 104.595 328.147 102.791 327.398 102.484C298.744 91.1323 340.813 99.5817 314.614 73.2912C301.539 60.2643 310.645 30.4895 329.267 36.5425C336.898 39.0197 337.038 50.3933 331.033 52.8058C328.879 48.0345 322.105 48.4761 320.516 53.3658C318.2 60.4958 328.982 64.007 331.303 56.8716C331.766 55.4553 336.602 55.5307 338.331 48.5892C341.783 34.2538 324.727 28.0823 314.566 35.39C298.426 47.0005 305.777 84.2177 316.407 121.64C354.809 127.881 392.624 130.886 402.296 113.513C408.387 102.576 400.287 86.3449 386.442 91.4285C379.743 93.9434 380.378 98.7416 379.026 99.3663C372.203 102.495 376.937 112.797 383.749 109.674C388.424 107.53 388.079 100.745 383.092 99.1616C384.794 92.9202 396.108 91.7462 399.453 99.0378C407.611 116.841 379.086 129.319 364.643 117.838C335.503 94.8481 348.751 135.663 334.173 108.505C333.769 107.799 331.906 107.39 329.321 107.137Z" fill="#F8AF0C"/>
<path d="M377.545 189.623C378.595 187.243 379.15 185.417 378.73 184.728C362.219 158.701 391.288 190.264 385.542 153.596C382.623 135.372 407.492 116.637 419.001 132.48C423.713 138.97 417.143 148.254 410.869 146.676C411.935 141.549 406.189 137.925 402.032 140.946C395.968 145.351 402.624 154.533 408.699 150.117C409.905 149.239 413.777 152.153 419.248 147.548C430.471 137.979 420.298 122.959 407.778 122.9C387.901 122.809 371.972 157.236 358.573 193.764C385.973 221.385 414.8 246.044 432.835 237.675C444.192 232.403 447.176 214.513 432.991 210.49C426.093 208.589 423.788 212.844 422.329 212.553C414.967 211.072 412.743 222.193 420.094 223.668C425.134 224.681 428.845 218.994 425.743 214.777C430.789 210.727 440.633 216.43 439.05 224.293C435.189 243.491 404.773 236.819 399.835 219.042C389.775 183.317 376.506 224.12 380.669 193.581C380.76 192.779 379.495 191.351 377.545 189.623Z" fill="#F8AF0C"/>
<path d="M368.083 284.705C370.329 283.397 371.853 282.249 371.918 281.442C373.857 250.681 378.822 293.3 395.731 260.262C404.078 243.805 435.21 243.261 435.21 262.847C435.21 270.865 424.434 274.516 420.288 269.551C424.16 266.029 421.645 259.718 416.502 259.718C409.006 259.718 408.995 271.054 416.502 271.054C417.994 271.054 419.415 275.68 426.551 275.179C441.252 274.032 441.85 255.905 431.758 248.495C415.732 236.734 382.607 255.227 350.301 276.902C356.236 315.352 365.062 352.246 384.568 356.075C396.851 358.488 409.787 345.768 400.669 334.174C396.21 328.584 391.838 330.668 390.83 329.575C385.747 324.049 377.41 331.74 382.489 337.254C385.973 341.04 392.317 338.616 392.285 333.382C398.747 333.07 403.362 343.468 397.46 348.902C383.054 362.166 362.364 338.891 368.821 321.605C381.681 286.789 346.963 311.997 368.277 289.74C368.827 289.143 368.643 287.247 368.083 284.705Z" fill="#F8AF0C"/>
<path d="M304.538 356.064C307.123 356.328 309.029 356.29 309.557 355.676C329.207 331.933 308.173 369.333 341.27 352.537C357.695 344.13 383.199 361.988 371.691 377.831C366.979 384.32 356.117 380.938 355.676 374.481C360.878 373.911 362.552 367.33 358.395 364.303C352.331 359.898 345.659 369.064 351.728 373.474C352.935 374.352 351.362 378.93 357.431 382.716C370 390.427 381.142 376.113 377.329 364.19C371.276 345.256 333.607 340.743 294.731 339.289C276.933 373.884 262.388 408.92 275.915 423.481C284.435 432.652 302.373 429.965 301.818 415.226C301.495 408.08 296.735 407.202 296.562 405.721C295.695 398.262 284.435 399.587 285.302 407.03C285.894 412.14 292.454 413.907 295.502 409.652C300.914 413.201 298.533 424.321 290.563 425.248C271.112 427.51 268.058 396.523 283.438 386.329C314.306 365.72 271.397 365.709 301.727 360.232C302.529 360.092 303.498 358.45 304.538 356.064Z" fill="#F8AF0C"/>
<path d="M211.18 376.442C213.118 378.176 214.68 379.269 215.466 379.081C245.322 371.417 206.322 389.312 242.969 395.182C261.203 398.036 271.338 427.477 252.711 433.525C245.08 436.002 238.283 426.885 241.725 421.403C246.27 423.999 251.493 419.658 249.905 414.768C247.589 407.638 236.803 411.133 239.118 418.274C239.581 419.69 235.618 422.475 238.3 429.104C243.933 442.734 261.359 437.699 265.285 425.813C271.516 406.938 243.696 381.148 213.097 357.12C178.362 374.643 146.003 394.439 148.388 414.176C149.891 426.605 165.982 434.974 174.194 422.722C178.136 416.75 174.797 413.244 175.53 411.941C179.213 405.398 169.326 399.846 165.648 406.378C163.127 410.859 167.393 416.147 172.358 414.499C174.652 420.552 166.186 428.151 159.196 424.214C142.131 414.607 157.872 387.745 176.311 388.542C213.398 390.012 178.691 364.783 206.446 378.181C207.189 378.52 208.94 377.761 211.18 376.442Z" fill="#F8AF0C"/>
<path d="M123.681 338.057C124.23 340.599 124.855 342.397 125.604 342.71C154.258 354.062 112.189 345.612 138.388 371.903C151.463 384.93 142.357 414.704 123.735 408.651C116.104 406.174 115.964 394.801 121.969 392.388C124.123 397.159 130.897 396.718 132.486 391.828C134.801 384.698 124.02 381.187 121.699 388.322C121.242 389.739 116.4 389.663 114.672 396.605C111.22 410.94 128.275 417.112 138.437 409.804C154.576 398.193 147.225 360.976 136.595 323.554C98.1928 317.313 60.3779 314.308 50.7061 331.681C44.6208 342.618 52.7147 358.849 66.5601 353.766C73.2593 351.251 72.6239 346.452 73.9756 345.828C80.7987 342.699 76.065 332.397 69.2473 335.52C64.5729 337.664 64.9176 344.449 69.9043 346.032C68.2026 352.274 56.8883 353.448 53.5441 346.156C45.3855 328.353 73.9109 315.875 88.354 327.356C117.493 350.346 104.246 309.531 118.824 336.689C119.233 337.394 121.091 337.809 123.681 338.057Z" fill="#F8AF0C"/>
<path d="M75.4509 255.57C74.4007 257.95 73.8461 259.776 74.2715 260.465C90.7826 286.492 61.7131 254.929 67.4592 291.597C70.3779 309.821 45.5145 328.556 34.001 312.713C29.2889 306.223 35.8589 296.939 42.1327 298.517C41.0664 303.644 46.8124 307.268 50.9698 304.247C57.0335 299.842 50.3774 290.66 44.3028 295.076C43.0966 295.954 39.2246 293.04 33.7479 297.645C22.5251 307.214 32.6978 322.234 45.2184 322.293C65.0952 322.39 81.0246 287.957 94.423 251.429C67.0231 223.808 38.196 199.149 20.161 207.518C8.80894 212.79 5.82019 230.68 20.0048 234.702C26.9033 236.603 29.2082 232.349 30.6676 232.64C38.0292 234.121 40.2531 223 32.9023 221.525C27.8618 220.512 24.1515 226.199 27.2534 230.416C22.2074 234.465 12.3632 228.762 13.9465 220.9C17.8077 201.702 48.2232 208.374 53.1614 226.151C63.221 261.876 76.4903 221.072 72.3275 251.612C72.2413 252.42 73.5068 253.847 75.4509 255.57Z" fill="#F8AF0C"/>
<path d="M64.6165 78.4409C67.0614 76.1145 66.7006 72.1832 64.0349 70.2446C60.7714 67.8697 58.0789 69.1029 56.6787 71.3701C54.5892 73.0233 53.6738 75.8398 56.4095 78.807C58.639 81.2304 62.5917 81.1389 64.6165 78.4409Z" fill="#F8AF0C"/>
<path d="M180.269 10.8183C183.613 10.3767 185.633 6.97872 184.615 3.84991C183.366 0.0102609 180.468 -0.571356 178.002 0.435678C175.336 0.543382 172.945 2.28279 173.414 6.29477C173.791 9.56359 177.043 11.8092 180.269 10.8183Z" fill="#F8AF0C"/>
<path d="M313.58 24.0919C316.547 25.7021 320.177 24.1404 321.195 21.0062C322.444 17.1665 320.441 14.9909 317.85 14.3554C315.632 12.8799 312.675 12.8799 310.694 16.3964C309.078 19.2667 310.387 22.9987 313.58 24.0919Z" fill="#F8AF0C"/>
<path d="M413.626 113.185C415.08 116.233 418.935 117.1 421.596 115.167C424.859 112.792 424.52 109.857 422.797 107.822C421.87 105.323 419.474 103.584 415.806 105.264C412.818 106.637 411.687 110.423 413.626 113.185Z" fill="#F8AF0C"/>
<path d="M442.2 244.073C441.586 247.396 444.193 250.363 447.488 250.363C451.527 250.363 452.976 247.784 452.777 245.129C453.493 242.56 452.583 239.749 448.625 238.952C445.394 238.3 442.254 240.697 442.2 244.073Z" fill="#F8AF0C"/>
<path d="M388.38 366.759C385.935 369.086 386.296 373.017 388.962 374.956C392.225 377.331 394.918 376.097 396.318 373.83C398.407 372.177 399.323 369.36 396.587 366.393C394.358 363.965 390.41 364.056 388.38 366.759Z" fill="#F8AF0C"/>
<path d="M272.727 434.376C269.383 434.818 267.364 438.216 268.382 441.345C269.631 445.184 272.528 445.766 274.995 444.759C277.66 444.651 280.051 442.912 279.583 438.9C279.206 435.631 275.959 433.385 272.727 434.376Z" fill="#F8AF0C"/>
<path d="M139.422 421.106C136.455 419.496 132.825 421.058 131.808 424.192C130.558 428.032 132.562 430.207 135.152 430.843C137.371 432.318 140.327 432.318 142.309 428.802C143.924 425.926 142.616 422.2 139.422 421.106Z" fill="#F8AF0C"/>
<path d="M39.3707 332.007C37.9167 328.959 34.0609 328.092 31.4006 330.025C28.1371 332.4 28.4764 335.335 30.1997 337.371C31.126 339.869 33.5224 341.609 37.1897 339.923C40.1785 338.555 41.3148 334.77 39.3707 332.007Z" fill="#F8AF0C"/>
<path d="M10.8018 201.12C11.4157 197.797 8.80931 194.83 5.51356 194.83C1.47466 194.83 0.0260671 197.409 0.22532 200.064C-0.496298 202.633 0.419166 205.444 4.37729 206.241C7.60303 206.892 10.748 204.496 10.8018 201.12Z" fill="#F8AF0C"/>
<path d="M135.362 182.618C128.312 182.769 123.643 181.816 110.983 182.516C104.612 182.699 102.937 185.338 111.64 178.8C116.174 178.369 120.719 178.213 125.168 178.143C122.206 174.826 119.244 171.374 116.492 167.744C115.41 156.915 114.596 159.936 118.781 164.745C126.837 174.541 130.704 177.33 135.362 182.618ZM129.271 243.827C123.66 248.092 119.319 250.063 109.486 258.076C104.44 261.964 104.639 265.087 107.838 254.683C111.252 251.667 114.839 248.867 118.393 246.201C114.047 245.259 109.62 244.209 105.258 242.89C98.0153 234.763 99.1354 237.688 105.345 239.12C117.623 242.303 122.389 242.286 129.271 243.827ZM160.317 296.919C158.281 303.672 155.933 307.819 152.686 320.076C150.893 326.188 152.885 328.601 149.358 318.304C150.349 313.856 151.604 309.488 152.912 305.234C148.841 307.027 144.646 308.778 140.343 310.275C129.707 307.959 132.33 309.661 138.2 307.173C149.993 302.536 153.844 299.72 160.317 296.919ZM216.641 321.632C218.962 328.288 219.5 333.027 224.078 344.848C226.216 350.852 229.247 351.622 220.34 345.37C218.525 341.191 216.974 336.915 215.531 332.709C213.291 336.554 210.922 340.437 208.321 344.175C198.358 348.553 201.481 348.386 204.761 342.925C211.595 332.236 213.049 327.696 216.641 321.632ZM276.729 308.514C282.523 312.531 285.738 316.053 296.395 322.925C301.657 326.522 304.565 325.369 293.682 325.542C289.756 323.226 285.991 320.684 282.351 318.121C282.798 322.548 283.164 327.082 283.261 331.632C277.774 341.03 280.202 339.064 279.648 332.715C278.883 320.06 277.391 315.531 276.729 308.514ZM317.635 262.578C324.684 262.427 329.353 263.38 342.014 262.68C348.384 262.497 350.059 259.858 341.357 266.396C336.822 266.827 332.277 266.983 327.829 267.053C330.791 270.37 333.753 273.822 336.504 277.452C337.587 288.281 338.4 285.26 334.216 280.451C326.165 270.656 322.298 267.866 317.635 262.578ZM323.731 201.375C329.342 197.11 333.683 195.139 343.516 187.126C348.562 183.238 348.363 180.114 345.169 190.518C341.755 193.534 338.169 196.334 334.615 199C338.96 199.943 343.387 200.993 347.749 202.312C354.992 210.438 353.872 207.514 347.663 206.082C335.379 202.899 330.608 202.915 323.731 201.375ZM292.685 148.277C294.721 141.524 297.069 137.383 300.316 125.121C302.115 119.008 300.117 116.596 303.644 126.892C302.653 131.34 301.399 135.708 300.09 139.962C304.161 138.169 308.356 136.419 312.659 134.922C323.295 137.237 320.672 135.535 314.802 138.023C303.003 142.665 299.158 145.477 292.685 148.277ZM236.361 123.57C234.04 116.913 233.507 112.174 228.924 100.354C226.786 94.3494 223.754 93.5794 232.662 99.8316C234.471 104.01 236.027 108.286 237.465 112.492C239.705 108.647 242.075 104.764 244.676 101.027C254.639 96.6489 251.515 96.8104 248.236 102.276C241.407 112.961 239.948 117.5 236.361 123.57ZM176.268 136.688C170.473 132.671 167.258 129.149 156.601 122.277C151.34 118.68 148.432 119.832 159.315 119.66C163.236 121.976 167.005 124.517 170.646 127.081C170.199 122.654 169.832 118.125 169.735 113.569C175.223 104.172 172.794 106.138 173.349 112.487C174.119 125.137 175.605 129.666 176.268 136.688ZM112.157 172.44C93.3895 186.652 74.6113 199.706 56.1023 205.635C73.0819 215.097 88.9197 231.597 104.51 249.228C97.6814 271.754 90.1637 293.354 78.6716 309.031C97.9668 306.704 120.477 310.743 143.461 315.843C151.178 338.084 157.791 359.975 157.71 379.41C171.954 366.189 192.542 356.221 214.131 346.84C233.448 360.298 251.666 374.122 263.023 389.895C266.777 370.826 277.574 350.664 289.524 330.383C313.057 329.914 335.928 330.394 354.383 336.479C346.209 318.848 343.096 296.187 340.845 272.756C359.613 258.544 378.391 245.491 396.9 239.562C379.92 230.1 364.082 213.599 348.492 195.968C355.32 173.442 362.838 151.842 374.33 136.166C355.035 138.492 332.525 134.453 309.541 129.353C301.824 107.112 295.211 85.2215 295.292 65.7809C281.048 79.007 260.46 88.9696 238.871 98.3507C219.554 84.8984 201.336 71.0692 189.978 55.2959C186.225 74.3649 175.428 94.5272 163.478 114.808C139.945 115.276 117.079 114.797 98.6185 108.712C106.793 126.348 109.906 149.009 112.157 172.44ZM63.8786 206.41C74.0135 202.985 82.1021 199.151 86.3511 199.049C120.773 198.408 146.24 192.409 115.921 193.103C85.7694 191.972 88.0528 195.241 97.1915 189.118C107.073 188.257 123.358 188.537 129.503 188.208C136.083 187.826 140.359 186.953 142.998 185.968C141.937 183.361 139.686 179.624 135.507 174.519C131.581 169.775 120.353 157.981 114.289 150.129C112.609 139.257 108.651 139.795 129.907 161.212C149.929 183.992 137.096 161.191 114.252 135.433C111.446 132.24 108.791 123.693 104.451 113.914C114.666 117.097 123.46 118.75 126.955 121.168C155.179 140.883 179.31 150.996 154.372 133.737C130.644 115.099 130.569 119.089 141.56 119.504C150.058 124.614 163.074 134.41 168.233 137.76C173.78 141.319 177.754 143.123 180.468 143.877C181.141 141.141 181.518 136.796 181.136 130.215C180.748 124.07 178.594 107.926 178.309 98.0114C183.339 88.2265 179.822 86.3363 184.426 116.154C187.232 146.349 190.253 120.36 186.92 86.0939C186.527 81.8612 189.402 73.3848 191.637 62.9214C198.029 71.5 204.174 78.0053 205.585 82.0173C216.835 114.555 230.405 136.925 220.373 108.302C212.133 79.2816 209.726 82.4589 218.375 89.2604C222.247 98.3937 227.013 113.968 229.221 119.708C231.617 125.847 233.771 129.644 235.521 131.852C237.675 130.037 240.535 126.741 244.094 121.189C247.39 115.993 255.14 101.663 260.735 93.477C270.552 88.5172 268.823 84.9253 255.021 111.749C239.544 137.83 257.261 118.577 274.704 88.8942C276.874 85.2376 284.182 80.0733 292.141 72.9217C292.271 83.6221 293.418 92.4969 292.195 96.5681C282.168 129.504 280.003 155.579 288.711 126.526C299.104 98.1999 295.286 99.3631 298.286 109.945C296.051 119.606 290.752 135.013 289.163 140.958C287.494 147.334 287.004 151.67 287.122 154.486C289.933 154.281 294.182 153.296 300.321 150.899C306.046 148.632 320.731 141.594 330.075 138.26C340.931 140.021 341.647 136.096 314.711 149.688C286.858 161.691 312.508 156.527 344.066 142.768C347.97 141.088 356.92 141.201 367.561 140.097C361.374 148.826 357.087 156.683 353.705 159.263C326.235 180.017 309.159 199.835 333.273 181.45C358.331 164.643 354.561 163.339 350.765 173.663C343.274 180.168 329.94 189.517 325.158 193.389C320.058 197.568 317.113 200.788 315.556 203.136C317.947 204.622 321.965 206.324 328.346 207.993C334.308 209.523 350.329 212.463 359.844 215.253C367.594 223.056 370.48 220.299 340.7 215.468C311.114 208.807 334.894 219.706 368.514 227.127C372.661 228.064 379.834 233.417 389.097 238.775C378.962 242.2 370.873 246.035 366.624 246.137C332.202 246.778 306.735 252.777 337.054 252.082C367.2 253.213 364.922 249.944 355.784 256.067C345.902 256.929 329.617 256.649 323.472 256.977C316.892 257.36 312.616 258.232 309.977 259.218C311.038 261.824 313.289 265.561 317.468 270.666C321.388 275.411 332.622 287.204 338.686 295.056C340.371 305.929 344.324 305.39 323.068 283.973C303.046 261.194 315.879 283.995 338.718 309.758C341.524 312.951 344.178 321.498 348.519 331.277C338.303 328.094 329.509 326.441 326.009 324.023C297.785 304.308 273.654 294.194 298.593 311.454C322.32 330.092 322.396 326.102 311.404 325.687C302.906 320.577 289.89 310.781 284.731 307.431C279.185 303.872 275.21 302.068 272.496 301.314C271.823 304.049 271.446 308.395 271.828 314.976C272.216 321.12 274.37 337.265 274.655 347.179C269.626 356.964 273.142 358.855 268.538 329.037C265.732 298.842 262.711 324.831 266.05 359.097C266.443 363.33 263.567 371.806 261.332 382.27C254.94 373.691 248.796 367.185 247.385 363.173C236.135 330.636 222.564 308.266 232.597 336.888C240.836 365.909 243.244 362.726 234.595 355.93C230.723 346.797 225.957 331.223 223.749 325.482C221.353 319.343 219.199 315.547 217.448 313.339C215.294 315.154 212.435 318.449 208.875 324.002C205.579 329.198 197.83 343.523 192.235 351.714C182.418 356.674 184.146 360.265 197.949 333.442C213.426 307.361 195.708 326.613 178.266 356.297C176.095 359.953 168.788 365.118 160.828 372.269C160.699 361.569 159.552 352.694 160.774 348.623C170.802 315.687 172.967 289.612 164.259 318.665C153.865 346.991 157.683 345.828 154.684 335.246C156.919 325.585 162.218 310.178 163.806 304.232C165.476 297.856 165.966 293.521 165.847 290.705C163.036 290.909 158.787 291.895 152.648 294.291C146.924 296.559 132.238 303.597 122.895 306.93C112.038 305.169 111.322 309.095 138.259 295.503C166.111 283.499 140.462 288.664 108.904 302.423C105 304.103 96.0497 303.99 85.4086 305.094C91.5908 296.365 95.8828 288.508 99.2647 285.928C126.735 265.174 143.811 245.356 119.691 263.741C94.6334 280.548 98.4031 281.852 102.2 271.523C109.691 265.017 123.024 255.674 127.806 251.797C132.906 247.623 135.852 244.397 137.408 242.049C135.017 240.563 131 238.861 124.618 237.192C118.657 235.663 102.636 232.722 93.1202 229.933C85.3709 222.13 82.4844 224.887 112.265 229.717C141.851 236.379 118.07 225.474 84.4501 218.058C80.3089 217.121 73.1411 211.768 63.8786 206.41Z" fill="#F8AF0C"/>
<path d="M178.681 201.622C169.229 200.48 164.69 197.449 157.635 196.366C148.206 194.88 145.405 197.626 156.397 192.446C156.601 192.338 156.806 192.225 157.011 192.117C156.951 191.896 156.892 191.67 156.833 191.444C153.203 179.844 153.079 183.77 160.559 189.699C166.133 194.153 171.437 195.44 178.681 201.622ZM200.14 177.518C193.167 171.04 191.277 165.918 186.204 160.894C179.451 154.146 175.568 154.722 187.507 156.99C187.738 157.022 187.97 157.054 188.196 157.087C188.282 156.871 188.363 156.656 188.449 156.44C192.327 144.927 189.925 148.023 192.488 157.221C194.384 164.103 197.916 168.261 200.14 177.518ZM231.671 170.636C229.835 161.292 231.316 156.042 230.169 148.993C228.666 139.563 225.187 137.748 233.513 146.602C233.68 146.763 233.847 146.925 234.013 147.086C234.207 146.962 234.401 146.838 234.601 146.715C244.509 139.676 240.74 140.769 237.412 149.72C234.902 156.397 235.317 161.836 231.671 170.636ZM261.23 183.598C265.237 174.96 269.524 171.578 272.733 165.207C277.063 156.699 275.313 153.188 276.847 165.24C276.89 165.471 276.928 165.697 276.971 165.924C277.203 165.94 277.434 165.951 277.666 165.967C289.815 166.096 286.126 164.766 278.172 170.049C272.211 173.975 269.346 178.622 261.23 183.598ZM277.52 211.461C285.835 206.83 291.291 206.614 297.64 203.345C306.143 199.005 306.795 195.133 300.946 205.79C300.844 206 300.742 206.21 300.639 206.415C300.817 206.56 300.995 206.711 301.178 206.857C310.93 214.105 308.728 210.858 299.191 210.459C292.055 210.131 287.009 212.204 277.52 211.461ZM274.322 243.578C283.773 244.72 288.313 247.752 295.367 248.834C304.797 250.321 307.597 247.574 296.606 252.755C296.401 252.862 296.197 252.975 295.992 253.083C296.051 253.304 296.11 253.53 296.169 253.756C299.799 265.356 299.923 261.43 292.443 255.501C286.869 251.048 281.565 249.755 274.322 243.578ZM252.856 267.677C259.83 274.156 261.72 279.277 266.793 284.301C273.546 291.049 277.429 290.473 265.49 288.206C265.258 288.173 265.027 288.141 264.801 288.109C264.715 288.324 264.634 288.539 264.548 288.755C260.67 300.268 263.072 297.172 260.509 287.974C258.619 281.097 255.08 276.934 252.856 267.677ZM221.326 274.565C223.162 283.908 221.681 289.159 222.828 296.208C224.326 305.637 227.81 307.452 219.479 298.599C219.312 298.437 219.145 298.276 218.978 298.114C218.784 298.238 218.59 298.362 218.391 298.491C208.482 305.524 212.252 304.431 215.58 295.486C218.1 288.803 217.686 283.359 221.326 274.565ZM191.772 261.597C187.765 270.235 183.479 273.617 180.269 279.988C175.94 288.496 177.69 292.013 176.155 279.955C176.112 279.724 176.074 279.498 176.031 279.271C175.799 279.255 175.568 279.245 175.336 279.228C163.182 279.099 166.876 280.429 174.83 275.146C180.792 271.221 183.656 266.573 191.772 261.597ZM175.482 233.734C167.162 238.365 161.712 238.581 155.363 241.85C146.859 246.19 146.208 250.062 152.056 239.405C152.158 239.195 152.261 238.985 152.363 238.78C152.185 238.635 152.008 238.484 151.824 238.339C142.072 231.09 144.274 234.337 153.812 234.736C160.942 235.07 165.988 232.991 175.482 233.734ZM152.934 190.324C134.893 199.64 115.808 206.776 96.6046 208.655C89.0061 209.635 93.4435 204.751 87.1535 204.751C84.4071 204.751 82.6677 206.27 81.9299 208.198C82.2692 210.233 83.6801 212.064 86.3673 212.608C92.5388 213.847 89.1461 208.187 96.4 210.648C114.855 216.281 132.163 227.04 148.012 239.728C138.895 257.865 127.645 274.861 113.212 287.667C107.639 292.928 108.361 286.369 103.272 290.063C101.053 291.679 100.536 293.93 101.074 295.922C102.544 297.371 104.763 298.023 107.257 296.881C112.976 294.259 106.906 291.674 114.22 289.396C132.459 283.106 152.783 281.636 173.064 282.583C176.349 302.616 177.237 322.978 173.091 341.821C171.674 349.349 168.406 343.619 166.456 349.602C165.605 352.214 166.515 354.336 168.12 355.634C170.161 355.941 172.342 355.165 173.688 352.774C176.774 347.292 170.344 348.768 174.922 342.623C185.983 326.812 201.562 313.678 218.526 302.525C232.958 316.801 245.64 332.752 253.368 350.432C256.647 357.357 250.632 354.643 252.576 360.626C253.422 363.238 255.409 364.422 257.472 364.525C259.303 363.571 260.611 361.665 260.293 358.94C259.566 352.688 255.231 357.664 255.328 350.001C254.984 330.711 259.868 310.926 267.036 291.932C287.106 295.002 306.741 300.446 323.381 310.209C330.107 313.882 323.645 315.223 328.734 318.923C330.953 320.538 333.257 320.328 334.986 319.203C335.907 317.356 335.848 315.045 333.985 313.026C329.725 308.395 329.138 314.97 324.711 308.712C313.09 293.311 305.416 274.436 300.052 254.85C318.093 245.533 337.178 238.398 356.382 236.518C363.98 235.538 359.543 240.423 365.833 240.423C368.579 240.423 370.318 238.904 371.056 236.976C370.717 234.94 369.306 233.109 366.619 232.566C360.447 231.327 363.84 236.987 356.581 234.526C338.126 228.893 320.818 218.133 304.974 205.446C314.092 187.308 325.341 170.318 339.773 157.507C345.347 152.245 344.62 158.804 349.715 155.11C351.933 153.495 352.45 151.244 351.912 149.251C350.442 147.802 348.223 147.145 345.73 148.292C340.01 150.915 346.08 153.505 338.761 155.778C320.521 162.068 300.198 163.538 279.917 162.59C276.632 142.557 275.743 122.196 279.89 103.353C281.306 95.8245 284.575 101.554 286.524 95.5713C287.37 92.9595 286.465 90.8324 284.861 89.5399C282.82 89.2329 280.639 90.0084 279.292 92.3994C276.207 97.8815 282.637 96.406 278.059 102.551C266.998 118.362 251.418 131.496 234.455 142.649C220.023 128.373 207.335 112.422 199.613 94.742C196.333 87.8166 202.348 90.5308 200.404 84.5478C199.554 81.936 197.572 80.7512 195.509 80.6489C193.678 81.6021 192.37 83.5085 192.688 86.2334C193.415 92.4856 197.75 87.5096 197.653 95.1728C197.997 114.463 193.118 134.248 185.945 153.241C165.874 150.172 146.24 144.727 129.6 134.964C122.874 131.291 129.336 129.951 124.247 126.251C122.028 124.635 119.723 124.845 117.995 125.971C117.074 127.818 117.133 130.128 118.991 132.148C123.251 136.779 123.838 130.204 128.264 136.461C139.891 151.868 147.57 170.743 152.934 190.324ZM151.938 215.177C152.449 214.261 151.248 213.48 150.554 213.475C128.474 213.05 130.214 208.892 117.381 207.492C139.229 201.687 142.131 213.324 162.977 212.01C174.308 210.831 171.05 207.853 169.682 207.837C150.958 207.476 149.767 204.509 141.103 202.532C133.579 200.938 133.332 203.125 141.9 199.215C142.961 199.748 155.384 200.938 160.468 202.737C168.858 205.376 176.747 207.783 186.801 205.483C186.995 205.44 187.189 205.424 187.378 205.435C187.238 205.3 187.119 205.149 187.022 204.977C181.906 196.027 174.792 191.853 167.167 187.464C162.401 184.939 153.106 176.608 151.997 176.188C149.067 167.238 147.629 168.896 153.892 173.355C161.216 178.39 164.205 177.26 177.151 190.793C178.094 191.789 182.488 192.166 175.681 183.032C162.53 166.807 152.002 172.553 141.474 152.547C151.194 161.045 153.079 156.947 168.341 172.903C168.815 173.409 170.199 173.765 170.527 172.768C171.48 172.327 170.963 170.991 170.409 170.576C152.794 157.253 156.65 154.911 147.085 146.235C168.174 154.383 163.683 165.498 181.319 176.694C191.18 182.402 190.296 178.078 189.198 177.26C174.265 165.961 175.04 162.865 169.192 156.171C164.038 150.457 162.557 152.084 171.787 153.958C172.331 155.013 181.68 163.279 184.739 167.722C189.979 174.788 194.944 181.374 204.427 185.423C204.61 185.504 204.772 185.601 204.923 185.725C204.89 185.537 204.885 185.343 204.901 185.149C206.021 174.901 202.72 167.34 199.134 159.311C196.759 154.464 194.141 142.261 193.49 141.27C196.382 132.309 194.238 132.805 196.689 140.091C199.656 148.47 202.736 149.316 205.256 167.868C205.434 169.225 208.762 172.117 208.628 160.727C207.524 139.87 195.633 138.33 198.875 115.954C201.745 128.54 205.677 126.332 208.649 148.217C208.735 148.901 209.645 150.01 210.502 149.391C211.53 149.596 211.902 148.212 211.692 147.549C205.273 126.418 209.769 126.789 207.131 114.15C219.403 133.138 209.236 139.493 216.921 158.912C221.547 169.322 223.367 165.31 222.963 164.001C217.519 146.085 219.969 144.033 219.177 135.179C218.364 127.532 216.215 127.974 222.575 134.916C222.398 136.084 225.101 148.271 224.961 153.667C225.047 162.461 225.193 170.706 230.486 179.559C230.588 179.731 230.658 179.909 230.712 180.092C230.798 179.92 230.906 179.758 231.035 179.613C237.972 171.982 239.738 163.926 241.558 155.32C242.484 150.005 247.541 138.594 247.595 137.409C255.204 131.857 253.179 131.001 250.875 138.341C248.349 146.86 250.347 149.359 241.477 165.848C240.82 167.049 241.817 171.347 248.403 162.052C259.771 144.528 251.052 136.294 266.826 120.101C261.753 131.97 266.228 132.498 255.77 151.944C255.436 152.552 255.522 153.979 256.578 153.985C257.294 154.755 258.403 153.85 258.624 153.198C265.851 132.331 269.27 135.271 274.564 123.499C273.331 146.074 261.37 145.239 256.179 165.466C253.799 176.608 257.638 174.432 258.08 173.134C264.208 155.439 267.396 155.218 271.958 147.592C275.797 140.926 273.794 140.021 274.866 149.375C274.031 150.215 269.06 161.664 265.775 165.945C260.676 173.113 255.947 179.871 255.027 190.141C255.005 190.335 254.962 190.523 254.892 190.706C255.064 190.615 255.242 190.55 255.436 190.507C265.533 188.407 271.699 182.93 278.226 177.039C282.098 173.285 292.901 167.022 293.639 166.096C303.057 166.074 301.926 164.195 295.744 168.778C288.69 174.19 288.84 177.378 271.974 185.51C270.735 186.097 269.017 190.157 279.809 186.511C299.304 179.015 297.096 167.232 319.374 163.403C308.292 170.022 311.603 173.081 291.711 182.666C291.086 182.962 290.316 184.169 291.161 184.788C291.285 185.833 292.718 185.752 293.283 185.353C311.393 172.72 312.433 177.109 323.639 170.695C309.374 188.235 300.187 180.528 284.096 193.841C275.625 201.455 280.008 201.951 281.123 201.159C296.482 190.442 299.191 192.144 307.366 188.649C314.388 185.515 313.305 183.603 308.668 191.8C307.5 191.988 296.746 198.332 291.576 199.867C283.24 202.667 275.442 205.354 268.657 213.12C268.527 213.27 268.382 213.394 268.22 213.497C268.409 213.523 268.597 213.577 268.775 213.658C278.178 217.891 286.385 217.088 295.13 216.157C300.472 215.398 312.885 216.679 314.027 216.361C321.658 221.881 321.852 219.695 314.156 219.77C305.271 220.002 303.515 222.673 285.092 219.334C283.746 219.081 279.965 221.359 290.843 224.746C311.022 230.142 316.159 219.307 336.435 229.308C323.575 228.15 324.463 232.571 302.734 228.634C302.055 228.505 300.72 229.028 301.043 230.029C300.532 230.945 301.732 231.725 302.427 231.731C324.506 232.156 322.767 236.314 335.6 237.714C313.752 243.519 310.85 231.882 290.004 233.196C278.673 234.375 281.931 237.353 283.299 237.369C302.023 237.73 303.213 240.692 311.878 242.674C319.407 244.268 319.649 242.081 311.081 245.991C310.02 245.458 297.596 244.268 292.513 242.469C284.123 239.836 276.233 237.423 266.179 239.723C265.985 239.766 265.797 239.782 265.603 239.771C265.743 239.906 265.862 240.056 265.959 240.229C271.075 249.179 278.188 253.352 285.814 257.741C290.58 260.267 299.875 268.603 300.984 269.018C303.914 277.968 305.357 276.31 299.088 271.851C291.764 266.815 288.776 267.946 275.83 254.413C274.887 253.417 270.493 253.04 277.3 262.173C290.451 278.399 300.979 272.653 311.507 292.659C301.786 284.167 299.901 288.259 284.64 272.303C284.166 271.797 282.776 271.441 282.453 272.438C281.5 272.879 282.017 274.215 282.572 274.629C300.187 287.952 296.331 290.295 305.895 298.971C284.807 290.823 289.298 279.708 271.661 268.512C261.801 262.803 262.684 267.128 263.783 267.946C278.716 279.245 277.941 282.341 283.789 289.035C288.942 294.749 290.423 293.122 281.193 291.248C280.649 290.193 271.301 281.926 268.242 277.484C263.002 270.418 258.037 263.832 248.554 259.782C248.371 259.702 248.209 259.605 248.058 259.481C248.09 259.669 248.096 259.863 248.08 260.057C246.96 270.305 250.261 277.866 253.847 285.895C256.222 290.742 258.839 302.945 259.491 303.936C256.599 312.897 258.742 312.407 256.292 305.115C253.325 296.736 250.245 295.89 247.724 277.338C247.547 275.981 244.219 273.089 244.353 284.479C245.457 305.336 257.348 306.876 254.106 329.252C251.235 316.666 247.304 318.874 244.332 296.989C244.245 296.305 243.335 295.196 242.479 295.809C241.45 295.605 241.079 296.989 241.289 297.651C247.708 318.783 243.211 318.411 245.85 331.05C233.577 312.062 243.745 305.707 236.06 286.288C231.439 275.879 229.614 279.891 230.018 281.199C235.462 299.116 233.012 301.168 233.803 310.021C234.617 317.668 236.765 317.226 230.405 310.285C230.583 309.116 227.88 296.93 228.02 291.534C227.934 282.739 227.788 274.489 222.494 265.641C222.392 265.469 222.322 265.291 222.268 265.108C222.182 265.281 222.074 265.442 221.945 265.588C215.014 273.218 213.243 281.275 211.423 289.88C210.496 295.196 205.44 306.607 205.386 307.792C197.777 313.344 199.801 314.2 202.106 306.86C204.632 298.335 202.634 295.842 211.503 279.352C212.16 278.151 211.164 273.854 204.578 283.149C193.21 300.672 201.923 308.906 186.15 325.1C191.228 313.231 186.748 312.708 197.206 293.257C197.54 292.648 197.453 291.221 196.398 291.216C195.682 290.446 194.572 291.351 194.351 292.008C187.125 312.875 183.705 309.935 178.411 321.707C179.645 299.132 191.605 299.967 196.802 279.74C199.182 268.598 195.342 270.779 194.906 272.071C188.778 289.767 185.59 289.988 181.028 297.614C177.189 304.28 179.192 305.185 178.12 295.831C178.955 294.991 183.926 283.542 187.211 279.261C192.311 272.093 197.039 265.335 197.959 255.065C197.976 254.871 198.024 254.683 198.094 254.499C197.922 254.591 197.744 254.656 197.55 254.699C187.453 256.799 181.287 262.276 174.76 268.167C170.888 271.921 160.085 278.184 159.348 279.11C149.929 279.131 151.06 281.011 157.237 276.428C164.291 271.016 164.14 267.823 181.007 259.696C182.246 259.109 183.963 255.049 173.171 258.695C153.677 266.191 155.885 277.974 133.606 281.803C144.689 275.184 141.377 272.125 161.27 262.54C161.895 262.243 162.665 261.037 161.819 260.418C161.696 259.373 160.263 259.454 159.703 259.852C141.593 272.486 140.553 268.097 129.347 274.511C143.612 256.971 152.799 264.678 168.89 251.365C177.361 243.751 172.978 243.255 171.863 244.047C156.504 254.758 153.795 253.062 145.621 256.557C138.598 259.691 139.681 261.603 144.317 253.406C145.486 253.218 156.24 246.879 161.41 245.345C169.746 242.544 177.544 239.857 184.324 232.086C184.453 231.941 184.599 231.812 184.76 231.709C184.572 231.682 184.383 231.629 184.206 231.548C174.803 227.315 166.596 228.117 157.85 229.049C152.508 229.808 140.096 228.527 138.949 228.844C131.318 223.325 131.129 225.516 138.819 225.436C147.705 225.204 149.46 222.533 167.883 225.872C169.229 226.125 173.01 223.847 162.132 220.454C141.953 215.058 136.816 225.893 116.541 215.893C129.4 217.051 128.512 212.63 150.241 216.566C150.925 216.701 152.255 216.173 151.938 215.177ZM189.316 206.286C192.908 209.038 196.549 217.159 201.131 211.472C202.219 204.245 193.775 207.067 189.316 206.286ZM186.834 231.257C191.357 231.37 199.08 235.802 199.441 228.505C196.069 222.021 190.894 229.27 186.834 231.257ZM199.5 252.922C203.226 250.358 212.08 249.4 208.078 243.287C201.541 240.019 201.616 248.92 199.5 252.922ZM222.478 262.997C223.986 258.732 230.583 252.76 223.755 250.159C216.549 251.36 221.843 258.522 222.478 262.997ZM246.992 257.65C245.705 253.315 247.53 244.602 240.481 246.513C235.355 251.715 243.847 254.397 246.992 257.65ZM263.681 238.909C260.089 236.158 256.448 228.037 251.865 233.729C250.778 240.95 259.227 238.129 263.681 238.909ZM266.169 213.938C261.645 213.825 253.923 209.393 253.562 216.69C256.933 223.174 262.103 215.931 266.169 213.938ZM253.503 192.279C249.776 194.842 240.923 195.801 244.918 201.918C251.456 205.176 251.381 196.275 253.503 192.279ZM230.524 182.198C229.016 186.463 222.414 192.44 229.248 195.036C236.453 193.835 231.159 186.678 230.524 182.198ZM206.005 187.551C207.292 191.886 205.466 200.599 212.516 198.687C217.642 193.48 209.155 190.798 206.005 187.551ZM203.657 212.576C206.027 215.904 209.893 217.191 214.034 217.132C211.272 214.035 207.707 212.064 203.657 212.576ZM202.128 227.918C206.005 229.221 209.888 227.988 213.205 225.5C209.15 224.622 205.106 225.123 202.128 227.918ZM209.909 241.23C213.808 240.003 216.226 236.728 217.449 232.765C213.652 234.434 210.674 237.213 209.909 241.23ZM224.029 247.423C226.463 244.138 226.496 240.067 225.149 236.141C223.06 239.728 222.29 243.724 224.029 247.423ZM239.092 244.133C239.129 240.046 236.76 236.734 233.373 234.348C233.787 238.473 235.511 242.162 239.092 244.133ZM249.345 232.619C246.976 229.291 243.109 228.004 238.963 228.064C241.725 231.16 245.29 233.131 249.345 232.619ZM250.875 217.277C247.003 215.974 243.115 217.207 239.803 219.695C243.852 220.573 247.891 220.077 250.875 217.277ZM243.093 203.97C239.194 205.198 236.776 208.472 235.554 212.436C239.35 210.766 242.323 207.982 243.093 203.97ZM228.973 197.777C226.539 201.062 226.507 205.133 227.847 209.054C229.937 205.473 230.712 201.471 228.973 197.777ZM213.91 201.062C213.873 205.15 216.242 208.461 219.63 210.847C219.215 206.722 217.486 203.033 213.91 201.062Z" fill="#F8AF0C"/>
</g>
<defs>
<clipPath id="clip0_40_25">
<rect width="453" height="445" fill="white"/>
</clipPath>
</defs>
</svg>
